<?xml version="1.0" encoding="UTF-8"?>
<svg id="Bloom_Logo" xmlns="http://www.w3.org/2000/svg" xmlns:xlink="http://www.w3.org/1999/xlink" version="1.1" viewBox="0 0 250 159.28">
  <!-- Generator: Adobe Illustrator 29.5.1, SVG Export Plug-In . SVG Version: 2.1.0 Build 141)  -->
  <defs>
    <style>
      .st0 {
        fill: url(#Naamloos_verloop);
      }

      .st1 {
        fill: url(#Naamloos_verloop_2);
      }
    </style>
    <linearGradient id="Naamloos_verloop" data-name="Naamloos verloop" x1="58.6" y1="190.63" x2="191.4" y2="190.63" gradientTransform="translate(0 271.28) scale(1 -1)" gradientUnits="userSpaceOnUse">
      <stop offset="0" stop-color="#ffcb85"/>
      <stop offset=".22" stop-color="#eebc79"/>
      <stop offset=".65" stop-color="#c0935b"/>
      <stop offset="1" stop-color="#976f40"/>
      <stop offset="1" stop-color="#976f40"/>
    </linearGradient>
    <linearGradient id="Naamloos_verloop_2" data-name="Naamloos verloop 2" x1="88.44" y1="185.79" x2="161.46" y2="185.79" gradientTransform="translate(0 271.28) scale(1 -1)" gradientUnits="userSpaceOnUse">
      <stop offset="0" stop-color="#ffcb85"/>
      <stop offset=".22" stop-color="#eebc79"/>
      <stop offset=".65" stop-color="#c0935b"/>
      <stop offset="1" stop-color="#976f40"/>
      <stop offset="1" stop-color="#976f40"/>
    </linearGradient>
  </defs>
  <g id="Icon">
    <path class="st0" d="M125,147.1c-36.6,0-66.4-29.8-66.4-66.4S88.4,14.2,125,14.2c4.6,0,9.1.5,13.6,1.4,30.6,6.4,52.8,33.7,52.8,65,0,36.6-29.8,66.5-66.4,66.5ZM125,26.9c-29.6,0-53.7,24.1-53.7,53.7s24.1,53.7,53.7,53.7,53.7-24.1,53.7-53.7c0-25.3-17.9-47.4-42.7-52.6-3.6-.7-7.3-1.1-11-1.1Z"/>
    <path class="st1" d="M159.7,76.1c-1.9-9.1-2-18.1-1-26.9-5.4.7-23,7.5-23.9,8.5l-9.8-10.6-9.8,10.6c-1-1-18.5-7.7-23.9-8.5,5.5,25.4-18.4,55.8,16.9,71.1,10.6,4.6,22.1,4.8,32.9.3,24-8.9,21.4-28.8,18.6-44.5ZM107,105.4c-7.4-5.4-6.5-13.5-4.2-27.3.6-3.8,1.3-7.8,1.7-11.7,4.6,2,8.7,4.6,12.2,7.7-6.2,8.9-9.6,19.6-9.7,31.3ZM143,105.4c-1.6,1.2-3.5,2.2-6,3.1l-.2.1c-2.4,1-4.6,1.7-6.7,2.1v.1c-1.4.3-3,.5-4.8.5h-.6c-1.8,0-3.4-.2-4.8-.5v-.1c-.9-9.7.9-18.7,5.1-26.1,2.2-3.9,5-7.4,8.4-10.5,3.5-3.1,7.5-5.7,12.2-7.7.4,4,1,7.9,1.7,11.7,2.1,13.9,3.1,22-4.3,27.3Z"/>
  </g>
</svg>