<svg xmlns="http://www.w3.org/2000/svg" xmlns:xlink="http://www.w3.org/1999/xlink" width="1080" zoomAndPan="magnify" viewBox="0 0 810 299.999988" height="400" preserveAspectRatio="xMidYMid meet" version="1.2"><defs><clipPath id="4e8b870790"><path d="M 166.832031 44.660156 L 375.632812 44.660156 L 375.632812 253.464844 L 166.832031 253.464844 Z M 166.832031 44.660156 "/></clipPath><clipPath id="c8c8d56fe1"><path d="M 375.632812 83.625 L 375.632812 214.5 C 375.632812 236.019531 358.1875 253.464844 336.667969 253.464844 L 205.796875 253.464844 C 184.277344 253.464844 166.832031 236.019531 166.832031 214.5 L 166.832031 83.625 C 166.832031 62.105469 184.277344 44.660156 205.796875 44.660156 L 336.667969 44.660156 C 358.1875 44.660156 375.632812 62.105469 375.632812 83.625 Z M 375.632812 83.625 "/></clipPath><clipPath id="31d70e0e0e"><path d="M 224.179688 94 L 323.417969 94 L 323.417969 204.214844 L 224.179688 204.214844 Z M 224.179688 94 "/></clipPath><clipPath id="11896ddae8"><path d="M 318.054688 158.085938 L 239.804688 202.800781 C 236.574219 204.648438 232.601562 204.636719 229.378906 202.765625 C 226.160156 200.898438 224.179688 197.457031 224.179688 193.730469 L 224.179688 104.582031 C 224.179688 100.859375 226.160156 97.414062 229.378906 95.546875 C 232.601562 93.679688 236.574219 93.664062 239.804688 95.511719 L 318.054688 140.226562 C 321.261719 142.058594 323.238281 145.464844 323.238281 149.15625 C 323.238281 152.847656 321.261719 156.257812 318.054688 158.085938 Z M 318.054688 158.085938 "/></clipPath><clipPath id="c54df53a5a"><path d="M 100.316406 0 L 139.261719 0 L 139.261719 38.945312 L 100.316406 38.945312 Z M 100.316406 0 "/></clipPath><clipPath id="109300064c"><path d="M 119.789062 0 C 109.035156 0 100.316406 8.71875 100.316406 19.472656 C 100.316406 30.226562 109.035156 38.945312 119.789062 38.945312 C 130.542969 38.945312 139.261719 30.226562 139.261719 19.472656 C 139.261719 8.71875 130.542969 0 119.789062 0 Z M 119.789062 0 "/></clipPath><clipPath id="5762168a80"><path d="M 61.363281 61.324219 L 100.308594 61.324219 L 100.308594 100.269531 L 61.363281 100.269531 Z M 61.363281 61.324219 "/></clipPath><clipPath id="adcbba9887"><path d="M 80.835938 61.324219 C 70.082031 61.324219 61.363281 70.042969 61.363281 80.796875 C 61.363281 91.550781 70.082031 100.269531 80.835938 100.269531 C 91.589844 100.269531 100.308594 91.550781 100.308594 80.796875 C 100.308594 70.042969 91.589844 61.324219 80.835938 61.324219 Z M 80.835938 61.324219 "/></clipPath><clipPath id="d4f98aee89"><path d="M 61.363281 132.984375 L 100.308594 132.984375 L 100.308594 171.925781 L 61.363281 171.925781 Z M 61.363281 132.984375 "/></clipPath><clipPath id="4334394669"><path d="M 80.835938 132.984375 C 70.082031 132.984375 61.363281 141.703125 61.363281 152.457031 C 61.363281 163.210938 70.082031 171.925781 80.835938 171.925781 C 91.589844 171.925781 100.308594 163.210938 100.308594 152.457031 C 100.308594 141.703125 91.589844 132.984375 80.835938 132.984375 Z M 80.835938 132.984375 "/></clipPath><clipPath id="c635a0aab2"><path d="M 63.597656 203.1875 L 102.542969 203.1875 L 102.542969 242.132812 L 63.597656 242.132812 Z M 63.597656 203.1875 "/></clipPath><clipPath id="e482b3932b"><path d="M 83.070312 203.1875 C 72.316406 203.1875 63.597656 211.90625 63.597656 222.660156 C 63.597656 233.414062 72.316406 242.132812 83.070312 242.132812 C 93.824219 242.132812 102.542969 233.414062 102.542969 222.660156 C 102.542969 211.90625 93.824219 203.1875 83.070312 203.1875 Z M 83.070312 203.1875 "/></clipPath><clipPath id="98e879066e"><path d="M 100.316406 261.046875 L 139.261719 261.046875 L 139.261719 299.992188 L 100.316406 299.992188 Z M 100.316406 261.046875 "/></clipPath><clipPath id="d27a88bdc4"><path d="M 119.789062 261.046875 C 109.035156 261.046875 100.316406 269.765625 100.316406 280.519531 C 100.316406 291.273438 109.035156 299.992188 119.789062 299.992188 C 130.542969 299.992188 139.261719 291.273438 139.261719 280.519531 C 139.261719 269.765625 130.542969 261.046875 119.789062 261.046875 Z M 119.789062 261.046875 "/></clipPath></defs><g id="64bed45f95"><g clip-rule="nonzero" clip-path="url(#4e8b870790)"><g clip-rule="nonzero" clip-path="url(#c8c8d56fe1)"><path style="fill:none;stroke-width:45.401543;stroke-linecap:butt;stroke-linejoin:miter;stroke:#f1cd59;stroke-opacity:1;stroke-miterlimit:4;" d="M 316.278616 59.021521 L 316.278616 257.262062 C 316.278616 289.858382 289.853645 316.283354 257.257324 316.283354 L 59.022701 316.283354 C 26.42638 316.283354 0.0014079 289.858382 0.0014079 257.262062 L 0.0014079 59.021521 C 0.0014079 26.425201 26.42638 0.000228872 59.022701 0.000228872 L 257.257324 0.000228872 C 289.853645 0.000228872 316.278616 26.425201 316.278616 59.021521 Z M 316.278616 59.021521 " transform="matrix(0.660183,0,0,0.660183,166.831102,44.660005)"/></g></g><g clip-rule="nonzero" clip-path="url(#31d70e0e0e)"><g clip-rule="nonzero" clip-path="url(#11896ddae8)"><path style=" stroke:none;fill-rule:nonzero;fill:#f1cd59;fill-opacity:1;" d="M 333.683594 86.582031 L 333.683594 211.914062 L 224.179688 211.914062 L 224.179688 86.582031 Z M 333.683594 86.582031 "/></g></g><path style="fill:none;stroke-width:20;stroke-linecap:butt;stroke-linejoin:miter;stroke:#f1cd59;stroke-opacity:1;stroke-miterlimit:4;" d="M 0.000280215 9.997827 L 56.829067 9.997827 " transform="matrix(0.66077,0.000000000000000661,-0.000000000000000661,0.66077,129.281065,15.014826)"/><path style="fill:none;stroke-width:20;stroke-linecap:butt;stroke-linejoin:miter;stroke:#f1cd59;stroke-opacity:1;stroke-miterlimit:4;" d="M 0.00238597 9.998736 L 68.527335 9.998992 " transform="matrix(0.449143,0.484653,-0.484653,0.449143,166.87219,14.988455)"/><path style="fill:none;stroke-width:20;stroke-linecap:butt;stroke-linejoin:miter;stroke:#f1cd59;stroke-opacity:1;stroke-miterlimit:4;" d="M -0.00156792 9.998836 L 56.827219 9.998836 " transform="matrix(0.66077,0.000000000000000661,-0.000000000000000661,0.66077,95.094786,74.193846)"/><path style="fill:none;stroke-width:20;stroke-linecap:butt;stroke-linejoin:miter;stroke:#f1cd59;stroke-opacity:1;stroke-miterlimit:4;" d="M -0.00178209 9.998338 L 53.776942 10.001748 " transform="matrix(0.439695,0.49324,-0.49324,0.439695,132.772213,74.260914)"/><path style="fill:none;stroke-width:20;stroke-linecap:butt;stroke-linejoin:miter;stroke:#f1cd59;stroke-opacity:1;stroke-miterlimit:4;" d="M -0.00156792 10.001883 L 119.597224 10.001883 " transform="matrix(0.66077,0.000000000000000628,-0.000000000000000628,0.66077,95.094786,145.851989)"/><path style="fill:none;stroke-width:20;stroke-linecap:butt;stroke-linejoin:miter;stroke:#f1cd59;stroke-opacity:1;stroke-miterlimit:4;" d="M -0.000452377 9.99968 L 56.828334 9.99968 " transform="matrix(0.66077,0,0,0.66077,132.64483,273.915945)"/><path style="fill:none;stroke-width:20;stroke-linecap:butt;stroke-linejoin:miter;stroke:#f1cd59;stroke-opacity:1;stroke-miterlimit:4;" d="M -0.00322616 10.000177 L 74.40075 10.000084 " transform="matrix(0.43565,-0.492192,0.492192,0.43565,160.309866,278.356676)"/><path style="fill:none;stroke-width:20;stroke-linecap:butt;stroke-linejoin:miter;stroke:#f1cd59;stroke-opacity:1;stroke-miterlimit:4;" d="M 0.00184886 10.001686 L 41.625846 10.001686 " transform="matrix(0.66077,0,0,0.66077,146.615966,96.457588)"/><path style="fill:none;stroke-width:20;stroke-linecap:butt;stroke-linejoin:miter;stroke:#f1cd59;stroke-opacity:1;stroke-miterlimit:4;" d="M 0.00073525 9.999538 L 39.037123 9.999538 " transform="matrix(0.660241,0.000000000000015383,-0.000000000000015383,0.660241,100.315921,216.058048)"/><path style="fill:none;stroke-width:20;stroke-linecap:butt;stroke-linejoin:miter;stroke:#f1cd59;stroke-opacity:1;stroke-miterlimit:4;" d="M -0.00112932 9.999178 L 66.612848 9.999385 " transform="matrix(0.409013,-0.518966,0.518966,0.409013,115.764352,220.952588)"/><path style="fill:none;stroke-width:20;stroke-linecap:butt;stroke-linejoin:miter;stroke:#f1cd59;stroke-opacity:1;stroke-miterlimit:4;" d="M -0.00159742 9.999789 L 41.628312 9.999789 " transform="matrix(0.66077,0,0,0.66077,142.954181,186.243998)"/><g clip-rule="nonzero" clip-path="url(#c54df53a5a)"><g clip-rule="nonzero" clip-path="url(#109300064c)"><path style="fill:none;stroke-width:45.401543;stroke-linecap:butt;stroke-linejoin:miter;stroke:#f1cd59;stroke-opacity:1;stroke-miterlimit:4;" d="M 29.470357 0.000000000000059825 C 13.195559 0.000000000000059825 0.000734661 13.194824 0.000734661 29.469623 C 0.000734661 45.744421 13.195559 58.939245 29.470357 58.939245 C 45.745156 58.939245 58.93998 45.744421 58.93998 29.469623 C 58.93998 13.194824 45.745156 0.000000000000059825 29.470357 0.000000000000059825 Z M 29.470357 0.000000000000059825 " transform="matrix(0.66077,0,0,0.66077,100.315921,-0.000000000000039531)"/></g></g><g clip-rule="nonzero" clip-path="url(#5762168a80)"><g clip-rule="nonzero" clip-path="url(#adcbba9887)"><path style="fill:none;stroke-width:45.401543;stroke-linecap:butt;stroke-linejoin:miter;stroke:#f1cd59;stroke-opacity:1;stroke-miterlimit:4;" d="M 29.469649 -0.00151133 C 13.19485 -0.00151133 0.000026123 13.193313 0.000026123 29.468111 C 0.000026123 45.74291 13.19485 58.937734 29.469649 58.937734 C 45.744447 58.937734 58.939271 45.74291 58.939271 29.468111 C 58.939271 13.193313 45.744447 -0.00151133 29.469649 -0.00151133 Z M 29.469649 -0.00151133 " transform="matrix(0.66077,0,0,0.66077,61.363264,61.325217)"/></g></g><g clip-rule="nonzero" clip-path="url(#d4f98aee89)"><g clip-rule="nonzero" clip-path="url(#4334394669)"><path style="fill:none;stroke-width:45.401543;stroke-linecap:butt;stroke-linejoin:miter;stroke:#f1cd59;stroke-opacity:1;stroke-miterlimit:4;" d="M 29.469649 0.00154647 C 13.19485 0.00154647 0.000026123 13.19637 0.000026123 29.471169 C 0.000026123 45.745968 13.19485 58.93488 29.469649 58.93488 C 45.744447 58.93488 58.939271 45.745968 58.939271 29.471169 C 58.939271 13.19637 45.744447 0.00154647 29.469649 0.00154647 Z M 29.469649 0.00154647 " transform="matrix(0.66077,0,0,0.66077,61.363264,132.983353)"/></g></g><g clip-rule="nonzero" clip-path="url(#c635a0aab2)"><g clip-rule="nonzero" clip-path="url(#e482b3932b)"><path style="fill:none;stroke-width:45.401543;stroke-linecap:butt;stroke-linejoin:miter;stroke:#f1cd59;stroke-opacity:1;stroke-miterlimit:4;" d="M 29.47037 -0.0029157 C 13.195572 -0.0029157 0.000747678 13.191908 0.000747678 29.466707 C 0.000747678 45.741505 13.195572 58.936329 29.47037 58.936329 C 45.745169 58.936329 58.939993 45.741505 58.939993 29.466707 C 58.939993 13.191908 45.745169 -0.0029157 29.47037 -0.0029157 Z M 29.47037 -0.0029157 " transform="matrix(0.66077,0,0,0.66077,63.597162,203.189427)"/></g></g><g clip-rule="nonzero" clip-path="url(#98e879066e)"><g clip-rule="nonzero" clip-path="url(#d27a88bdc4)"><path style="fill:none;stroke-width:45.401543;stroke-linecap:butt;stroke-linejoin:miter;stroke:#f1cd59;stroke-opacity:1;stroke-miterlimit:4;" d="M 29.470357 -0.000678725 C 13.195559 -0.000678725 0.000734661 13.194145 0.000734661 29.468944 C 0.000734661 45.743742 13.195559 58.938566 29.470357 58.938566 C 45.745156 58.938566 58.93998 45.743742 58.93998 29.468944 C 58.93998 13.194145 45.745156 -0.000678725 29.470357 -0.000678725 Z M 29.470357 -0.000678725 " transform="matrix(0.66077,0,0,0.66077,100.315921,261.047323)"/></g></g><g style="fill:#f1cd59;fill-opacity:1;"><g transform="translate(431.939189, 170.006842)"><path style="stroke:none" d="M 89.109375 0 L 83.015625 -23.140625 L 42.90625 -23.140625 L 36.65625 0 L 0 0 L 40.28125 -123.984375 L 84.796875 -123.984375 L 125.59375 0 Z M 76.09375 -50.5 L 70.78125 -70.78125 C 70.21875 -72.96875 69.398438 -76.101562 68.328125 -80.1875 C 67.253906 -84.269531 66.195312 -88.492188 65.15625 -92.859375 C 64.113281 -97.222656 63.3125 -100.8125 62.75 -103.625 C 62.238281 -100.8125 61.519531 -97.332031 60.59375 -93.1875 C 59.664062 -89.050781 58.707031 -84.957031 57.71875 -80.90625 C 56.738281 -76.851562 55.882812 -73.476562 55.15625 -70.78125 L 49.828125 -50.5 Z M 76.09375 -50.5 "/></g><g transform="translate(557.525653, 170.006842)"><path style="stroke:none" d="M 13.34375 0 L 13.34375 -123.484375 L 46.875 -123.484375 L 46.875 0 Z M 13.34375 0 "/></g></g><g style="fill:#f1cd59;fill-opacity:1;"><g transform="translate(431.939189, 250.259867)"><path style="stroke:none" d="M 43.921875 -45.203125 L 29.125 0 L 14.75 0 L 0 -45.203125 L 13.71875 -45.203125 L 19.875 -22.296875 C 20.101562 -21.421875 20.363281 -20.304688 20.65625 -18.953125 C 20.957031 -17.609375 21.238281 -16.265625 21.5 -14.921875 C 21.757812 -13.585938 21.921875 -12.5 21.984375 -11.65625 C 22.066406 -12.5 22.21875 -13.578125 22.4375 -14.890625 C 22.664062 -16.210938 22.921875 -17.535156 23.203125 -18.859375 C 23.484375 -20.191406 23.742188 -21.296875 23.984375 -22.171875 L 30.265625 -45.203125 Z M 43.921875 -45.203125 "/></g><g transform="translate(475.873663, 250.259867)"><path style="stroke:none" d="M 4.890625 0 L 4.890625 -45.203125 L 17.15625 -45.203125 L 17.15625 0 Z M 4.890625 0 "/></g><g transform="translate(497.918194, 250.259867)"><path style="stroke:none" d="M 43.25 -23.5625 C 43.25 -18.300781 42.269531 -13.925781 40.3125 -10.4375 C 38.351562 -6.957031 35.59375 -4.347656 32.03125 -2.609375 C 28.476562 -0.867188 24.300781 0 19.5 0 L 4.890625 0 L 4.890625 -45.203125 L 20.53125 -45.203125 C 25.394531 -45.203125 29.515625 -44.363281 32.890625 -42.6875 C 36.273438 -41.019531 38.847656 -38.578125 40.609375 -35.359375 C 42.367188 -32.148438 43.25 -28.21875 43.25 -23.5625 Z M 30.578125 -23.125 C 30.578125 -25.863281 30.207031 -28.132812 29.46875 -29.9375 C 28.738281 -31.738281 27.640625 -33.085938 26.171875 -33.984375 C 24.710938 -34.878906 22.875 -35.328125 20.65625 -35.328125 L 17.09375 -35.328125 L 17.09375 -10.015625 L 19.8125 -10.015625 C 23.519531 -10.015625 26.238281 -11.09375 27.96875 -13.25 C 29.707031 -15.40625 30.578125 -18.695312 30.578125 -23.125 Z M 30.578125 -23.125 "/></g><g transform="translate(544.387944, 250.259867)"><path style="stroke:none" d="M 31.71875 0 L 4.890625 0 L 4.890625 -45.203125 L 31.71875 -45.203125 L 31.71875 -35.390625 L 17.09375 -35.390625 L 17.09375 -28.28125 L 30.640625 -28.28125 L 30.640625 -18.484375 L 17.09375 -18.484375 L 17.09375 -9.953125 L 31.71875 -9.953125 Z M 31.71875 0 "/></g><g transform="translate(579.139773, 250.259867)"><path style="stroke:none" d="M 47.171875 -22.65625 C 47.171875 -19.175781 46.753906 -16.007812 45.921875 -13.15625 C 45.085938 -10.300781 43.785156 -7.84375 42.015625 -5.78125 C 40.242188 -3.71875 37.960938 -2.132812 35.171875 -1.03125 C 32.390625 0.0703125 29.0625 0.625 25.1875 0.625 C 21.394531 0.625 18.113281 0.0703125 15.34375 -1.03125 C 12.570312 -2.132812 10.289062 -3.710938 8.5 -5.765625 C 6.707031 -7.816406 5.378906 -10.273438 4.515625 -13.140625 C 3.648438 -16.003906 3.21875 -19.195312 3.21875 -22.71875 C 3.21875 -27.414062 3.992188 -31.5 5.546875 -34.96875 C 7.109375 -38.445312 9.515625 -41.140625 12.765625 -43.046875 C 16.023438 -44.953125 20.1875 -45.90625 25.25 -45.90625 C 30.40625 -45.90625 34.59375 -44.945312 37.8125 -43.03125 C 41.039062 -41.113281 43.40625 -38.410156 44.90625 -34.921875 C 46.414062 -31.441406 47.171875 -27.351562 47.171875 -22.65625 Z M 16.078125 -22.65625 C 16.078125 -19.9375 16.382812 -17.597656 17 -15.640625 C 17.625 -13.679688 18.601562 -12.175781 19.9375 -11.125 C 21.28125 -10.070312 23.03125 -9.546875 25.1875 -9.546875 C 27.4375 -9.546875 29.222656 -10.070312 30.546875 -11.125 C 31.878906 -12.175781 32.835938 -13.679688 33.421875 -15.640625 C 34.015625 -17.597656 34.3125 -19.9375 34.3125 -22.65625 C 34.3125 -26.738281 33.628906 -29.960938 32.265625 -32.328125 C 30.910156 -34.703125 28.570312 -35.890625 25.25 -35.890625 C 23.050781 -35.890625 21.273438 -35.351562 19.921875 -34.28125 C 18.578125 -33.207031 17.597656 -31.679688 16.984375 -29.703125 C 16.378906 -27.722656 16.078125 -25.375 16.078125 -22.65625 Z M 16.078125 -22.65625 "/></g><g transform="translate(629.597944, 250.259867)"><path style="stroke:none" d="M 2.65625 -5.125 C 2.65625 -7.3125 3.296875 -8.847656 4.578125 -9.734375 C 5.867188 -10.617188 7.425781 -11.0625 9.25 -11.0625 C 10.957031 -11.0625 12.4375 -10.617188 13.6875 -9.734375 C 14.945312 -8.847656 15.578125 -7.3125 15.578125 -5.125 C 15.578125 -3.050781 14.945312 -1.550781 13.6875 -0.625 C 12.4375 0.300781 10.957031 0.765625 9.25 0.765625 C 7.425781 0.765625 5.867188 0.300781 4.578125 -0.625 C 3.296875 -1.550781 2.65625 -3.050781 2.65625 -5.125 Z M 2.65625 -5.125 "/></g><g transform="translate(647.901398, 250.259867)"><path style="stroke:none" d="M 47.921875 0 L 31.90625 0 L 15.390625 -31.84375 L 15.109375 -31.84375 C 15.210938 -30.875 15.304688 -29.707031 15.390625 -28.34375 C 15.472656 -26.988281 15.546875 -25.601562 15.609375 -24.1875 C 15.671875 -22.78125 15.703125 -21.507812 15.703125 -20.375 L 15.703125 0 L 4.890625 0 L 4.890625 -45.203125 L 20.84375 -45.203125 L 37.28125 -13.78125 L 37.46875 -13.78125 C 37.40625 -14.769531 37.34375 -15.921875 37.28125 -17.234375 C 37.21875 -18.546875 37.160156 -19.867188 37.109375 -21.203125 C 37.054688 -22.546875 37.03125 -23.734375 37.03125 -24.765625 L 37.03125 -45.203125 L 47.921875 -45.203125 Z M 47.921875 0 "/></g><g transform="translate(700.709337, 250.259867)"><path style="stroke:none" d="M 43.3125 -45.203125 L 43.3125 -17.984375 C 43.3125 -14.191406 42.585938 -10.898438 41.140625 -8.109375 C 39.703125 -5.316406 37.539062 -3.160156 34.65625 -1.640625 C 31.769531 -0.128906 28.148438 0.625 23.796875 0.625 C 17.578125 0.625 12.828125 -0.972656 9.546875 -4.171875 C 6.273438 -7.367188 4.640625 -11.882812 4.640625 -17.71875 L 4.640625 -45.203125 L 16.90625 -45.203125 L 16.90625 -18.671875 C 16.90625 -15.472656 17.503906 -13.148438 18.703125 -11.703125 C 19.898438 -10.265625 21.660156 -9.546875 23.984375 -9.546875 C 25.660156 -9.546875 27.019531 -9.859375 28.0625 -10.484375 C 29.113281 -11.117188 29.878906 -12.113281 30.359375 -13.46875 C 30.847656 -14.832031 31.09375 -16.585938 31.09375 -18.734375 L 31.09375 -45.203125 Z M 43.3125 -45.203125 "/></g></g></g></svg>