<?xml version="1.0" encoding="UTF-8"?>
<svg id="Laag_1" xmlns="http://www.w3.org/2000/svg" version="1.1" xmlns:xlink="http://www.w3.org/1999/xlink" viewBox="0 0 419 400">
  <!-- Generator: Adobe Illustrator 29.6.1, SVG Export Plug-In . SVG Version: 2.1.1 Build 9)  -->
  <defs>
    <style>
      .st0 {
        clip-path: url(#clippath-6);
      }

      .st1 {
        clip-path: url(#clippath-7);
      }

      .st2 {
        clip-path: url(#clippath-4);
      }

      .st3 {
        clip-path: url(#clippath-9);
      }

      .st4 {
        clip-path: url(#clippath-10);
      }

      .st5 {
        clip-path: url(#clippath-11);
      }

      .st6 {
        fill: none;
      }

      .st7 {
        clip-path: url(#clippath-1);
      }

      .st8 {
        clip-path: url(#clippath-5);
      }

      .st9 {
        clip-path: url(#clippath-8);
      }

      .st10 {
        fill: #f1cd59;
      }

      .st11 {
        clip-path: url(#clippath-3);
      }

      .st12 {
        clip-path: url(#clippath-12);
      }

      .st13 {
        clip-path: url(#clippath-2);
      }

      .st14 {
        clip-path: url(#clippath-13);
      }

      .st15 {
        clip-path: url(#clippath);
      }
    </style>
    <clipPath id="clippath">
      <rect class="st6" x="140.6" y="59.5" width="278.4" height="278.4"/>
    </clipPath>
    <clipPath id="clippath-1">
      <rect class="st6" x="140.6" y="59.5" width="278.4" height="278.4" rx="52" ry="52"/>
    </clipPath>
    <clipPath id="clippath-2">
      <rect class="st6" x="217.1" y="125.3" width="132.3" height="147"/>
    </clipPath>
    <clipPath id="clippath-3">
      <path class="st6" d="M342.3,210.8l-104.3,59.6c-4.3,2.5-9.6,2.4-13.9,0-4.3-2.5-6.9-7.1-6.9-12v-118.9c0-5,2.6-9.6,6.9-12,4.3-2.5,9.6-2.5,13.9,0l104.3,59.6c4.3,2.4,6.9,7,6.9,11.9s-2.6,9.5-6.9,11.9Z"/>
    </clipPath>
    <clipPath id="clippath-4">
      <rect class="st6" x="51.9" width="51.9" height="51.9"/>
    </clipPath>
    <clipPath id="clippath-5">
      <circle class="st6" cx="77.9" cy="26" r="26" transform="translate(44.4 100.9) rotate(-84.3)"/>
    </clipPath>
    <clipPath id="clippath-6">
      <rect class="st6" x="0" y="81.8" width="51.9" height="51.9"/>
    </clipPath>
    <clipPath id="clippath-7">
      <circle class="st6" cx="26" cy="107.7" r="26" transform="translate(-4.9 1.3) rotate(-2.6)"/>
    </clipPath>
    <clipPath id="clippath-8">
      <rect class="st6" x="0" y="177.3" width="51.9" height="51.9"/>
    </clipPath>
    <clipPath id="clippath-9">
      <path class="st6" d="M26,177.3C11.6,177.3,0,188.9,0,203.3s11.6,26,26,26,26-11.6,26-26-11.6-26-26-26Z"/>
    </clipPath>
    <clipPath id="clippath-10">
      <rect class="st6" x="3" y="270.9" width="51.9" height="51.9"/>
    </clipPath>
    <clipPath id="clippath-11">
      <circle class="st6" cx="28.9" cy="296.9" r="26"/>
    </clipPath>
    <clipPath id="clippath-12">
      <rect class="st6" x="51.9" y="348.1" width="51.9" height="51.9"/>
    </clipPath>
    <clipPath id="clippath-13">
      <circle class="st6" cx="77.9" cy="374" r="26"/>
    </clipPath>
  </defs>
  <g class="st15">
    <g class="st7">
      <path class="st10" d="M367.1,357.9h-174.5c-39.7,0-71.9-32.3-71.9-71.9V111.5c0-39.7,32.3-71.9,71.9-71.9h174.5c39.7,0,71.9,32.3,71.9,71.9v174.5c0,39.7-32.3,71.9-71.9,71.9ZM192.6,79.5c-17.6,0-32,14.3-32,32v174.5c0,17.6,14.3,32,32,32h174.5c17.6,0,32-14.3,32-32V111.5c0-17.6-14.3-32-32-32h-174.5Z"/>
    </g>
  </g>
  <g class="st13">
    <g class="st11">
      <path class="st10" d="M363.1,115.4v167.1h-146V115.4h146Z"/>
    </g>
  </g>
  <rect class="st10" x="90.6" y="20" width="50.1" height="17.6"/>
  <rect class="st10" x="145.9" y="17.9" width="17.6" height="60.4" transform="translate(8.5 118) rotate(-42.8)"/>
  <rect class="st10" x="45" y="98.9" width="50.1" height="17.6"/>
  <rect class="st10" x="95.6" y="98.9" width="17.6" height="47.4" transform="translate(-55.1 100.5) rotate(-41.7)"/>
  <rect class="st10" x="45" y="194.5" width="105.4" height="17.6"/>
  <rect class="st10" x="95" y="365.2" width="50.1" height="17.6"/>
  <rect class="st10" x="127.5" y="343.8" width="65.2" height="17.5" transform="translate(-210 238.8) rotate(-48.5)"/>
  <rect class="st10" x="113.7" y="128.6" width="36.7" height="17.6"/>
  <rect class="st10" x="51.9" y="288.1" width="34.4" height="17.6"/>
  <rect class="st10" x="68.3" y="268.2" width="58.7" height="17.6" transform="translate(-180.4 182.2) rotate(-51.8)"/>
  <rect class="st10" x="108.8" y="248.3" width="36.7" height="17.6"/>
  <g class="st2">
    <g class="st8">
      <path class="st10" d="M77.9,71.9c-25.3,0-46-20.6-46-46s20.6-46,46-46S123.9.6,123.9,26s-20.6,46-46,46ZM77.9,20c-3.3,0-6,2.7-6,6s2.7,6,6,6,6-2.7,6-6-2.7-6-6-6Z"/>
    </g>
  </g>
  <g class="st0">
    <g class="st1">
      <path class="st10" d="M26,153.7c-25.3,0-46-20.6-46-46S.6,61.8,26,61.8s46,20.6,46,46-20.6,46-46,46ZM26,101.8c-3.3,0-6,2.7-6,6s2.7,6,6,6,6-2.7,6-6-2.7-6-6-6Z"/>
    </g>
  </g>
  <g class="st9">
    <g class="st3">
      <path class="st10" d="M26,249.2c-25.3,0-46-20.6-46-46S.6,157.3,26,157.3s46,20.6,46,46-20.6,46-46,46ZM26,197.3c-3.3,0-6,2.7-6,6s2.7,6,6,6,6-2.7,6-6-2.7-6-6-6Z"/>
    </g>
  </g>
  <g class="st4">
    <g class="st5">
      <path class="st10" d="M28.9,342.8c-25.3,0-46-20.6-46-46s20.6-46,46-46,46,20.6,46,46-20.6,46-46,46ZM28.9,290.9c-3.3,0-6,2.7-6,6s2.7,6,6,6,6-2.7,6-6-2.7-6-6-6Z"/>
    </g>
  </g>
  <g class="st12">
    <g class="st14">
      <path class="st10" d="M77.9,420c-25.3,0-46-20.6-46-46s20.6-46,46-46,46,20.6,46,46-20.6,46-46,46ZM77.9,368.1c-3.3,0-6,2.7-6,6s2.7,6,6,6,6-2.7,6-6-2.7-6-6-6Z"/>
    </g>
  </g>
</svg>